<svg id="Layer_1" data-name="Layer 1" xmlns="http://www.w3.org/2000/svg" viewBox="0 0 14.00079 13.99981"><defs><style>.cls-1{fill:#940000;}</style></defs><title>MR logo</title><path class="cls-1" d="M7.99914,1.0003A6.99991,6.99991,0,1,0,15,8.00018,7.00041,7.00041,0,0,0,7.99914,1.0003M4.89941,8.21247v.00317c-.03412.12528-.06627.25683-.09837.39554l-.09214.406-.29516,1.2945a1.54338,1.54338,0,0,1-1.5069,1.20339l.97041-4.099q.42882-1.77873.42977-1.93351c0-.13156-.05175-.19679-.1553-.19679q-.33555,0-1.366.97865A3.17547,3.17547,0,0,1,3.70017,4.913,2.97512,2.97512,0,0,1,5.352,4.26259a.4401.4401,0,0,1,.27136.07664.26949.26949,0,0,1,.09116.21541c0,.05076-.17817.85855-.38425,1.77607-.146.64834-.30656,1.35258-.43086,1.88176m4.01315-1.5783A4.14625,4.14625,0,0,0,8.31084,8.052q-.34956,1.29251-.59239,2.29494a1.52707,1.52707,0,0,1-1.4872,1.16818L7.51232,6.26444A5.57816,5.57816,0,0,0,7.6501,5.612a.29788.29788,0,0,0-.06834-.21126.25963.25963,0,0,0-.19783-.07249,1.50587,1.50587,0,0,0-.72187.36142A4.82474,4.82474,0,0,0,5.46281,6.83822c.03418-.15225.06835-.30346.10257-.45467.03-.1315.058-.25476.08282-.36765Q7.45336,4.26207,8.44752,4.26259a.55262.55262,0,0,1,.4277.1553.68817.68817,0,0,1,.14711.48884,5.09,5.09,0,0,1-.25891,1.22932A8.62719,8.62719,0,0,1,10.467,4.68718a2.57956,2.57956,0,0,1,1.10191-.42355l.02489-.001h.01556q.0357,0,.07146.00311c.01757.001.03417.0041.05071.00617a.79844.79844,0,0,1,.46706.25067l.001.002a.79008.79008,0,0,1,.20509.53338.81087.81087,0,0,1-.07768.347.79869.79869,0,0,1-.71767.44839.67811.67811,0,0,1-.26824-.04553l-.00109-.001c-.233-.10464-.21432-.33866-.464-.44325a.448.448,0,0,0-.15012-.03521,1.23745,1.23745,0,0,0-.57585.2154A4.498,4.498,0,0,0,8.91256,6.63417m1.98531,5.05911c-.18745.03521-.70533.1315-.97974-.15536a.97354.97354,0,0,1-.19778-.70113,4.59487,4.59487,0,0,1,.12113-.96621q.11964-.55622.70425-2.48867a14.92466,14.92466,0,0,0,.41945-1.58763.66138.66138,0,0,0,.27856.233.90549.90549,0,0,0,.36563.06627,1.02536,1.02536,0,0,0,.60582-.19368q-.1383.50645-.57787,1.96359a15.58949,15.58949,0,0,0-.6794,2.65538c0,.19575.08079.292.24133.292a2.82858,2.82858,0,0,0,.31792-.10252,4.50827,4.50827,0,0,0,1.69327-1.28009,3.66253,3.66253,0,0,1-2.31257,2.265" transform="translate(-0.99921 -1.0003)"/></svg>